<?xml version="1.0" encoding="UTF-8" standalone="no"?>
<!-- Created with Inkscape (http://www.inkscape.org/) -->

<svg
   xmlns:dc="http://purl.org/dc/elements/1.1/"
   xmlns:cc="http://creativecommons.org/ns#"
   xmlns:rdf="http://www.w3.org/1999/02/22-rdf-syntax-ns#"
   xmlns:svg="http://www.w3.org/2000/svg"
   xmlns="http://www.w3.org/2000/svg"
   xmlns:sodipodi="http://sodipodi.sourceforge.net/DTD/sodipodi-0.dtd"
   xmlns:inkscape="http://www.inkscape.org/namespaces/inkscape"
   width="210mm"
   height="297mm"
   id="svg3069"
   version="1.1"
   inkscape:version="0.48.3.1 r9886"
   sodipodi:docname="New document 4">
  <defs
     id="defs3071" />
  <sodipodi:namedview
     pagecolor="#000000"
     bordercolor="#000000"
     borderopacity="1.0"
     inkscape:pageopacity="1.0"
     inkscape:pageshadow="0"
     inkscape:zoom="0.34"
     inkscape:cx="350"
     inkscape:cy="520"
     inkscape:document-units="px"
     inkscape:current-layer="layer1"
     id="namedview3073"
     showgrid="false"
     inkscape:window-width="1280"
     inkscape:window-height="747"
     inkscape:window-x="0"
     inkscape:window-y="29"
     inkscape:window-maximized="1" />
  <metadata
     id="metadata3075">
    <rdf:RDF>
      <cc:Work
         rdf:about="">
        <dc:format>image/svg+xml</dc:format>
        <dc:type
           rdf:resource="http://purl.org/dc/dcmitype/StillImage" />
        <dc:title></dc:title>
      </cc:Work>
    </rdf:RDF>
  </metadata>
  <g
     inkscape:label="Layer 1"
     inkscape:groupmode="layer"
     id="layer1">
    <g
       style="opacity:0.37000002"
       transform="matrix(1.5324917,0,0,1.5324917,-92.41482,85.369926)"
       id="g2996">
      <path
         style="fill:#ffffff"
         inkscape:connector-curvature="0"
         d="m 93.358,107.564 c 9.843,-42.489 66.354,-70.826 122.136,-56.52 30.367,7.282 63.75,27.295 102.135,53.982 8.141,5.155 8.32,4.763 0.723,-1.483 -30.25,-27.618 -59.998,-54.329 -95.434,-59.636 -21.233,-2.877 -10.332,-4.55 1.781,-6.474 19.078,-1.799 34.61,2.782 49.676,10.221 32.707,16.135 50.066,51.243 81.755,68.447 48.789,30.037 101.977,19.14 144.902,-5.267 C 443.957,165.252 384.384,148.344 362.413,142.7 311.596,127.053 277.73,91.958 229.037,78.262 159.704,58.197 107.364,84.913 97.01,111.274 c -2.808,7.705 -5.327,3.805 -3.652,-3.71 z"
         id="path2998" />
      <path
         style="fill:#ffffff"
         inkscape:connector-curvature="0"
         d="m 140.283,148.716 c -4.231,5.867 -6.952,11.891 -8.666,18.689 -2.262,9.491 -0.527,17.518 3.988,24.563 5.991,7.924 17.287,10.84 27.099,8.635 9.804,-2.287 19.761,-11.86 24.997,-21.595 0.798,-1.479 2.566,-0.029 2.314,1.639 -3.419,7.197 -10.517,15.791 -21.211,21.073 -10.768,5.285 -27.41,3.527 -35.676,-8.279 -10.729,-15.305 -6.965,-36.579 4.3,-54.407 13.911,-22.256 38.32,-34.184 59.412,-37.799 121.991,-9.839 122.402,87.336 343.377,47.216 l -74.139,13.398 c -32.193,3.033 -65.752,4.631 -99.228,-2.974 -63.61,-14.481 -118.361,-65.172 -185.7,-42.612 -16.639,5.771 -30.483,16.26 -40.867,32.453 z"
         id="path3000" />
    </g>
  </g>
</svg>
